<svg xmlns="http://www.w3.org/2000/svg" width="30" height="32" viewBox="0 0 30 32" fill="none">
<path d="M5.94141 5.98043C6.03344 5.98043 6.07946 5.98043 6.12118 5.97937C7.47743 5.945 8.6739 5.08264 9.13539 3.80685C9.14959 3.7676 9.16414 3.72395 9.19325 3.63663L9.35315 3.15691C9.48966 2.7474 9.55792 2.54263 9.64845 2.36878C10.0096 1.67516 10.6779 1.1935 11.4501 1.07019C11.6437 1.03928 11.8595 1.03928 12.2912 1.03928H17.7092C18.1408 1.03928 18.3567 1.03928 18.5502 1.07019C19.3225 1.1935 19.9907 1.67516 20.3519 2.36878C20.4425 2.54263 20.5107 2.74739 20.6472 3.15691L20.8071 3.63663C20.8362 3.72383 20.8508 3.76763 20.865 3.80685C21.3265 5.08264 22.5229 5.945 23.8792 5.97937C23.9209 5.98043 23.9669 5.98043 24.059 5.98043" stroke="#211512" stroke-width="1.5"/>
<path d="M29 8.17648H1" stroke="#211512" stroke-width="1.5" stroke-linecap="round"/>
<path d="M26.2538 10.3726L25.4963 21.7357C25.2048 26.1085 25.059 28.2949 23.6343 29.6278C22.2096 30.9607 20.0183 30.9607 15.6359 30.9607H14.3621C9.97963 30.9607 7.78839 30.9607 6.36368 29.6278C4.93896 28.2949 4.7932 26.1085 4.50169 21.7357L3.74414 10.3726" stroke="#211512" stroke-width="1.5" stroke-linecap="round"/>
</svg>
